<?xml version="1.0" encoding="iso-8859-1"?>
<!-- Generator: Adobe Illustrator 19.0.0, SVG Export Plug-In . SVG Version: 6.00 Build 0)  -->
<svg version="1.1" id="Capa_1" xmlns="http://www.w3.org/2000/svg" xmlns:xlink="http://www.w3.org/1999/xlink" x="0px" y="0px"
	 viewBox="0 0 512 512" style="enable-background:new 0 0 512 512;" xml:space="preserve">
<circle style="fill:#00E8F2;" cx="256" cy="256" r="256"/>
<path style="fill:#00B7BE;" d="M511.517,271.544l-77.689-77.689L256,58.958L78.173,193.855l24.469,32.257l25.948,26.513v118.553
	H95.334v37.489l94.749,94.749C211.117,509.005,233.207,512,256,512C392.164,512,503.479,405.689,511.517,271.544z"/>
<polygon style="fill:#FFFFFF;" points="383.409,374.829 128.588,374.829 128.588,203.114 255.999,106.463 383.409,203.114 "/>
<polygon style="fill:#9CFDFF;" points="383.409,203.11 383.409,374.83 255.999,374.83 255.999,106.46 "/>
<path style="fill:#FEC000;" d="M294.512,281.528c0-16.448-9.322-26.681-28.433-34.329v-34.355c8.49,0.811,14.874,3.46,18.41,5.375
	l5.275-17.41c-5.36-2.757-13.257-5.245-23.685-5.842v-16.753h-19.063v18.33c-17.255,4.413-27.595,16.943-27.595,32.402
	c0,15.734,10.628,25.78,27.595,32.766v37.433c-9.629-0.694-18.575-3.848-24.782-7.417l-4.748,17.938
	c6.077,3.613,17.831,6.918,29.53,7.339v16.662h19.063v-18.538C285.324,310.252,294.512,296.678,294.512,281.528z M241.227,226.835
	c0-3.793,1.833-7.745,5.789-10.523v21.698C243.063,234.969,241.227,231.56,241.227,226.835z M266.078,295.434v-24.801
	c4.495,3.435,6.451,7.353,6.451,12.477C272.53,288.304,270.296,292.583,266.078,295.434z"/>
<path style="fill:#FF9A00;" d="M266.076,247.2v-34.356c8.49,0.812,14.875,3.462,18.412,5.375l5.276-17.41
	c-5.359-2.758-13.26-5.243-23.688-5.847v-16.747h-10.08v155.454h10.08v-18.544c19.249-4.87,28.434-18.445,28.434-33.594
	C294.51,265.082,285.192,254.845,266.076,247.2z M266.076,295.437v-24.806c4.497,3.437,6.452,7.355,6.452,12.482
	C272.528,288.306,270.292,292.58,266.076,295.437z"/>
<rect x="95.33" y="371.18" style="fill:#0088FF;" width="321.33" height="37.489"/>
<rect x="256" y="371.18" style="fill:#004EB1;" width="160.67" height="37.49"/>
<polygon style="fill:#E02424;" points="409.357,226.112 255.999,109.777 102.64,226.112 78.171,193.855 255.999,58.958 
	433.826,193.855 "/>
<polygon style="fill:#990011;" points="433.829,193.86 409.358,226.11 383.409,206.43 255.999,109.78 255.999,58.96 "/>
<g>
</g>
<g>
</g>
<g>
</g>
<g>
</g>
<g>
</g>
<g>
</g>
<g>
</g>
<g>
</g>
<g>
</g>
<g>
</g>
<g>
</g>
<g>
</g>
<g>
</g>
<g>
</g>
<g>
</g>
</svg>
